<?xml version="1.0" encoding="UTF-8" standalone="no"?>
<!-- Created with Inkscape (http://www.inkscape.org/) -->

<svg
   xmlns:dc="http://purl.org/dc/elements/1.1/"
   xmlns:cc="http://creativecommons.org/ns#"
   xmlns:rdf="http://www.w3.org/1999/02/22-rdf-syntax-ns#"
   xmlns:svg="http://www.w3.org/2000/svg"
   xmlns="http://www.w3.org/2000/svg"
   xmlns:sodipodi="http://sodipodi.sourceforge.net/DTD/sodipodi-0.dtd"
   xmlns:inkscape="http://www.inkscape.org/namespaces/inkscape"
   width="744.09448819"
   height="1052.3622047"
   id="svg2"
   version="1.1"
   inkscape:version="0.48.4 r9939"
   sodipodi:docname="New document 1">
  <defs
     id="defs4" />
  <sodipodi:namedview
     id="base"
     pagecolor="#ffffff"
     bordercolor="#666666"
     borderopacity="1.0"
     inkscape:pageopacity="0.0"
     inkscape:pageshadow="2"
     inkscape:zoom="1.4"
     inkscape:cx="181.83741"
     inkscape:cy="458.16394"
     inkscape:document-units="px"
     inkscape:current-layer="g3014"
     showgrid="false"
     inkscape:window-width="1366"
     inkscape:window-height="721"
     inkscape:window-x="-2"
     inkscape:window-y="24"
     inkscape:window-maximized="1" />
  <metadata
     id="metadata7">
    <rdf:RDF>
      <cc:Work
         rdf:about="">
        <dc:format>image/svg+xml</dc:format>
        <dc:type
           rdf:resource="http://purl.org/dc/dcmitype/StillImage" />
        <dc:title></dc:title>
      </cc:Work>
    </rdf:RDF>
  </metadata>
  <g
     inkscape:label="Layer 1"
     inkscape:groupmode="layer"
     id="layer1">
    <g
       transform="matrix(1.25,0,0,-1.25,-2.8571443,1030.0193)"
       inkscape:label="original"
       id="g3012">
      <g
         transform="matrix(576,0,0,823.68,-69.498491,69.498495)"
         id="g3014">
        <path
           style="fill:#000000"
           d="m 0.33468027,0.35396112 c -0.008514,-3.4267e-4 -0.0168728,-0.004036 -0.022092,-0.0108659 l -0.001302,-0.004097 -5.2083e-4,6.07e-5 c 1.75e-5,-1.5042e-4 1.7779e-4,-3.7746e-4 3.4722e-4,-6.6773e-4 l -1.7361e-4,-5.1598e-4 5.6424e-4,-1.2141e-4 c 0.002864,-0.004175 0.0135227,-0.0158256 0.0136719,-0.0207908 7.1951e-4,-0.0151608 -0.009796,-0.0270683 -0.0203559,-0.0364523 l 0.001215,-0.00346 c -1.449e-4,-0.008836 0.0106291,-0.00708 0.0164931,-0.007558 0.0137072,-0.002823 0.027305,0.00138 0.0410157,0.002337 0.005851,0.002878 0.0148131,-0.001851 0.0196181,0.003733 l -8.6805e-4,0.004462 -0.00434,0.007254 c -0.0117922,0.00694 -0.017316,0.0225367 -0.0222222,0.0348436 8.0069e-4,1.5002e-4 0.001607,5.7879e-4 0.002387,0.001366 0.002371,0.004766 0.00876,0.005654 0.009766,0.0114729 2.0681e-4,0.0134158 -0.0152826,0.015246 -0.0247396,0.018211 -0.00276,6.3758e-4 -0.005626,9.0337e-4 -0.008464,7.8914e-4 z m 0.001042,-0.001032 c 9.8536e-4,-1.055e-5 0.001924,-7.802e-5 0.002821,-1.8211e-4 0.002967,-3.45e-4 0.005822,-0.001734 0.009245,-0.001791 0.002081,-0.001118 0.0103853,-0.003813 0.0139323,-0.006343 0.003689,-0.00277 0.005565,-0.008887 0.001302,-0.0125048 -0.006838,0.001092 -0.018579,0.001082 -0.0246528,0.002125 l 0.002474,-0.003794 0.004253,-0.004462 c 0.002782,-3.174e-5 0.005735,-0.002978 0.008637,-0.003733 0.001314,-0.006892 0.0141962,-0.0268918 0.012283,-0.0263148 6.9296e-4,-0.001182 0.001706,-0.002758 0.002691,-0.003581 0.004096,-0.003428 0.009173,-0.005027 0.0114149,-0.0104713 l -8.681e-5,-0.007011 c -0.0101952,-9.21e-4 -0.0202864,-0.002402 -0.0304688,-0.003369 -0.0115662,-0.002382 -0.0229883,-0.001076 -0.0346355,-2.7317e-4 -0.005839,1.392e-4 -0.009691,0.007611 -0.005469,0.0119889 0.0114921,0.009289 0.0208471,0.0245858 0.0162761,0.0397909 -0.002973,0.004621 -0.006877,0.0110886 -0.0114583,0.0148116 l 0.001345,0.00428 c 0.00454,0.008441 0.0131979,0.0109093 0.0200955,0.0108355 z m 0.0141927,-0.007618 -0.004297,-1.8211e-4 5.6424e-4,-5.7668e-4 0.007769,-0.002944 0.004167,-7.2843e-4 -0.00816,0.004431 -4.34e-5,0 z m 9.5486e-4,-0.004219 -0.004123,-1.2141e-4 -0.001345,-0.001427 c 6.39e-4,-0.005577 0.008405,-0.001571 0.005469,0.001548 z m -0.00204,-0.001457 c 0.001106,-3.885e-5 4.733e-4,-0.003005 -0.001085,-5.4633e-4 4.4512e-4,4.05e-4 8.2991e-4,5.553e-4 0.001085,5.4633e-4 z m -0.006727,-0.006981 c 7.55e-4,-3.2759e-4 0.001479,-6.3623e-4 0.001953,-9.1054e-4 2.5669e-4,-1.4857e-4 2.8158e-4,5.7481e-4 6.5104e-4,-4.2493e-4 0.001094,-0.002962 -0.00349,-0.002174 -0.003212,6.6774e-4 l 6.0764e-4,6.6773e-4 z m 0.005512,-8.1949e-4 0.003602,-9.105e-5 0.0114583,9.105e-5 c -0.001782,-0.001354 -0.00449,-0.002314 -0.00842,-0.002519 -0.002066,-0.001255 -0.004247,0.002034 -0.005295,1.5176e-4 l -0.002344,0.001062 9.9827e-4,0.001305 z m -8.681e-5,-0.003794 c 0.001106,-3.885e-5 5.1671e-4,-0.003005 -0.001042,-5.4633e-4 4.4512e-4,4.0501e-4 7.8651e-4,5.553e-4 0.001042,5.4633e-4 z m 0.002995,-9.105e-5 0.003429,-4.8563e-4 c 0.007508,-0.001292 -0.00119,-0.005147 9.9826e-4,-0.0017 l -0.002821,-5.1597e-4 -0.002344,0.001062 7.3785e-4,0.001639 z m -0.009245,-0.0150544 0.001389,-0.002519 c 0.002247,-0.00615 0.0100991,-0.005737 0.0133681,-0.0104106 -0.00371,-0.005995 -0.0124039,-0.006967 -0.0178819,-0.003157 l 0.00178,0.001487 c 0.003184,0.006032 -0.002918,0.00878 -0.00599,0.012262 4.22e-4,-0.002927 0.00288,-0.005076 0.004557,-0.007284 0.003772,-0.004076 -0.005127,-0.00551 -2.6042e-4,-0.008802 0.006751,-0.00184 0.0170958,-0.002403 0.0190538,0.006677 -0.004572,0.003179 -0.0115223,0.003823 -0.0137153,0.009834 l -0.0023,0.001912 z"
           id="path3027"
           inkscape:connector-curvature="0" />
        <path
           style="fill:#000000"
           d="M 393.90625 416.6875 C 392.91602 416.79627 392.82734 417.46895 392.4375 419.375 C 392.32662 419.92142 391.65705 420.1824 390.65625 420.0625 C 389.76993 419.95659 388.85351 420.014 388.625 420.1875 C 388.39778 420.3615 388.43728 422.54991 388.71875 425.03125 C 389.19323 429.21319 389.3427 429.55732 390.9375 430.0625 C 392.63206 430.59892 392.64284 430.7034 392.4375 435.4375 C 392.18622 441.09874 391.95322 441.72721 390.0625 441.46875 C 388.93498 441.31534 388.35938 441.77347 387.3125 443.6875 C 386.9112 444.42409 385.54996 444.71019 384.375 444.90625 C 384.11767 444.85905 383.72805 444.83605 383.21875 444.84375 C 380.72121 444.88145 375.71682 445.58066 373.6875 446.3125 C 372.70902 446.66396 371.27083 447.18242 370.46875 447.46875 C 369.66667 447.75498 368.04428 448.57487 366.875 449.3125 C 365.1719 450.38946 364.82996 450.89521 365.1875 451.8125 C 365.4359 452.44159 366.07012 454.64925 366.59375 456.71875 C 367.11719 458.78835 368.59268 464.00017 369.875 468.28125 C 371.15732 472.56274 372.70277 478.69596 373.28125 481.90625 C 373.86013 485.11654 374.52373 487.9127 374.78125 488.125 C 375.04261 488.3371 375.54497 489.95299 375.875 491.71875 C 376.4654 494.88213 376.45642 494.9385 375.0625 495.78125 C 374.28739 496.25238 373.60749 496.88971 373.5625 497.21875 C 373.5176 497.54749 373.23047 497.89778 372.9375 497.96875 C 371.91582 498.21585 368.40578 502.91291 368.21875 504.28125 C 368.07259 505.34717 367.6543 505.64262 366.4375 505.5625 C 365.57278 505.5058 364.31989 505.45597 363.65625 505.4375 C 362.99025 505.4187 362.17966 505.3881 361.84375 505.375 C 361.11755 505.3472 360.10768 512.13327 360.71875 512.9375 C 360.9503 513.24226 364.3211 513.94012 368.1875 514.46875 C 372.05721 514.99743 375.4201 515.68991 375.65625 516 C 376.18401 516.69271 371.57476 550.35991 369.625 560.09375 C 367.7242 569.58553 365.79847 576.39298 364.84375 577 C 364.40671 577.27387 363.3303 580.39604 362.4375 583.96875 C 361.54254 587.53992 359.84209 592.6046 358.65625 595.21875 C 357.46753 597.8329 356.4468 600.41234 356.375 600.9375 C 356.303 601.46363 357.5037 603.53794 359.0625 605.53125 C 360.6213 607.52559 361.82806 609.61657 361.75 610.1875 C 361.55992 611.57643 359.22766 616.05862 358.53125 616.375 C 357.72528 616.74205 352.55877 623.83281 350.53125 627.34375 L 348.78125 630.34375 L 350.75 633.84375 C 351.83144 635.77013 353.26172 637.62087 353.9375 637.9375 C 354.56027 638.2294 355.18155 638.71112 355.40625 639.0625 C 355.03505 639.38182 354.66372 639.68047 354.5 639.6875 C 354.36577 639.6935 354.22766 639.7159 354.09375 639.75 C 353.55879 639.88664 352.10159 639.99338 350.84375 640 C 349.58519 640.007 348.39328 640.21914 348.1875 640.46875 C 347.98619 640.71791 348.1008 643.7751 348.46875 647.25 C 348.84175 650.7249 349.10365 653.99906 349.03125 654.53125 C 348.90075 655.48578 351.00279 657.34148 351.84375 657.34375 C 352.43797 657.68611 353.19419 658.02798 353.71875 658.21875 C 356.44208 659.21025 380.15576 662.38842 383.75 662.25 C 385.56217 662.1798 388.85325 662.05939 391.03125 661.96875 C 393.20925 661.87785 396.31923 661.8951 397.96875 662 C 401.07886 662.19768 405.18186 661.9182 417.21875 660.71875 C 423.25213 660.1169 424.37179 660.16808 424.84375 660.96875 C 425.30311 661.75099 425.56573 661.67138 426.53125 660.5625 C 427.44925 659.51025 427.83589 657.98368 428.34375 653.125 C 428.92315 647.56001 428.85448 646.88426 427.75 645.875 C 425.76784 644.05879 421.9346 639.47835 422 639 C 422.0331 638.75598 422.97098 637.38512 424.0625 635.9375 C 426.12224 633.19773 427.32838 632.34153 425.6875 629.21875 C 425.50318 629.02724 423.57316 624.66072 421.375 619.53125 L 417.375 610.21875 L 418.84375 607 C 419.14866 606.33045 419.3733 605.70161 419.5625 605.125 C 419.73001 605.42936 419.89117 605.62244 419.96875 605.46875 C 420.02075 605.36423 419.9637 604.76559 419.875 604.03125 C 419.97652 603.52928 419.99527 603.10606 419.90625 602.90625 C 419.82045 602.71332 419.74785 602.6173 419.65625 602.59375 C 419.38822 600.85279 419.03532 598.90599 418.8125 598.4375 C 418.4129 597.59014 417.76654 595.10342 417.375 592.90625 C 416.98548 590.70908 416.14825 586.7563 415.53125 584.09375 C 412.59221 571.46766 412.15581 569.26046 411.75 565.53125 C 411.50598 563.33202 411.09788 561.23855 410.875 560.875 C 410.64873 560.51052 410.25824 558.68019 410 556.8125 C 409.73936 554.94584 409.22359 551.47727 408.84375 549.09375 C 408.46445 546.71043 408.03108 541.89314 407.875 538.375 C 407.71656 534.85583 407.44276 531.2654 407.25 530.40625 C 406.4999 527.04955 406.60849 516.13291 407.40625 515.71875 C 408.36795 515.21738 418.38561 515.06863 419.90625 515.53125 L 421.75 516.09375 L 422.5 512.15625 C 422.90751 509.99718 423.13253 508.01444 423 507.71875 C 422.86608 507.42269 421.459 506.91496 419.875 506.59375 C 417.86692 506.18706 416.98125 505.72785 416.96875 505.09375 C 416.95875 504.59233 416.89285 503.75632 416.84375 503.25 C 416.79475 502.74346 417.10242 502.45612 417.5 502.59375 C 418.54849 502.95617 418.57986 501.36506 417.5625 500.25 C 417.08154 499.72696 415.41623 498.52914 413.84375 497.59375 C 412.38859 496.72815 410.80905 495.97704 410.125 495.78125 C 410.70495 493.24538 410.83418 487.53103 412.8125 483.03125 C 413.6441 481.14708 414.55501 479.3561 414.84375 479.0625 C 415.12887 478.76803 415.69395 477.49648 416.09375 476.21875 C 416.49335 474.94102 417.5784 472.34056 418.5 470.46875 C 419.42448 468.59591 421.05868 464.62217 422.125 461.625 C 424.36708 455.32129 424.4111 455.22877 425.9375 455.4375 C 427.72814 455.68152 427.41977 454.8892 424.90625 452.8125 C 423.31347 451.4977 420.80044 450.33684 416.875 449.125 C 413.73724 448.15675 410.96778 447.35082 410.6875 447.3125 C 410.4024 447.2734 409.97117 446.2589 409.75 445.0625 C 409.52824 443.8661 408.96504 442.84484 408.5 442.78125 C 408.35257 442.76105 408.23437 442.7436 408.125 442.75 C 407.96629 442.759 407.85899 442.8284 407.78125 442.90625 C 406.81333 442.87055 405.21585 442.95525 404 442.90625 L 401 442.78125 L 400.6875 440.5625 C 400.52123 439.34036 400.44349 437.99072 400.5 437.5625 C 400.5267 437.3606 400.4662 437.21895 400.375 437.125 C 400.369 437.119 400.381 437.09895 400.375 437.09375 C 400.53347 436.25888 400.9251 434.25375 401.09375 433.125 C 402.29466 433.91625 404.12966 434.82063 404.5 434.65625 C 404.96335 434.4493 405.7205 427.07668 405.4375 425.53125 C 405.3655 425.10475 404.49864 424.6678 403.5 424.53125 C 401.58076 424.2687 401.53923 424.20803 401.0625 420.09375 L 400.75 417.5 L 396.9375 416.96875 C 395.42904 416.76257 394.50039 416.62224 393.90625 416.6875 z M 395.34375 418.09375 C 395.8196 418.09443 396.39985 418.16625 397.09375 418.3125 C 399.61515 418.8448 399.69471 418.90661 400.09375 421.78125 C 400.36519 423.73337 400.83669 424.80017 401.5 424.9375 C 402.04432 425.05034 402.87359 425.2034 403.34375 425.3125 C 404.35417 425.54725 404.76781 429.18638 404.03125 431.3125 C 403.59493 432.58548 403.25653 432.70808 401.78125 432.28125 C 401.01196 432.05907 400.36043 431.97843 400.125 432.0625 C 400.122 432.06302 400.09505 432.0615 400.09375 432.0625 C 400.09075 432.0645 400.09675 432.09015 400.09375 432.09375 C 400.0928 432.09475 400.0634 432.09275 400.0625 432.09375 C 400.037 432.11075 400.03455 432.13175 400.03125 432.15625 C 400.02925 432.17165 400.02625 432.20045 400.03125 432.21875 C 399.81278 432.95048 399.52519 436.928 399.59375 437.625 C 399.38262 438.1551 399.1912 438.97703 399.125 439.875 L 398.9375 442.375 L 396.09375 442.09375 C 393.39484 441.82811 393.25913 441.73741 393.4375 440.21875 C 393.54069 439.3405 393.63346 437.51671 393.65625 436.1875 C 393.67905 434.85829 393.76666 432.84271 393.84375 431.6875 C 393.96111 429.87278 393.76215 429.51972 392.34375 429.15625 C 390.58191 428.70426 389.61616 426.44638 389.6875 422.9375 C 389.7185 421.27554 389.83866 421.15105 391.3125 421.53125 C 392.65472 421.8768 392.95934 421.71565 393.125 420.5625 C 393.37772 418.79429 393.91619 418.09172 395.34375 418.09375 z M 390.0625 442.4375 C 390.61553 442.3627 394.2743 442.79242 398.1875 443.40625 C 403.51993 444.24283 406.46673 444.21798 407.78125 443.78125 C 407.9242 444.2671 408.20459 444.90309 408.6875 445.875 C 409.87255 448.26264 411.25436 448.99615 418.625 451.15625 C 422.5094 452.29499 424.46135 453.8036 423.59375 455 C 423.21647 455.52921 422.39409 457.58773 421.75 459.5625 C 421.102 461.53696 418.12236 468.48881 415.125 475 C 409.28085 487.70547 406.9868 495.27064 407.75 495.375 C 407.8187 495.384 408.35359 495.92596 408.875 496.3125 C 408.88 496.3155 408.87 496.34045 408.875 496.34375 C 409.12471 496.98042 410.12583 497.98256 411.6875 499.03125 C 414.61106 500.99573 414.65008 501.09083 414.59375 504.21875 C 414.52535 508.01781 414.97607 508.81795 416.84375 508.125 C 417.60191 507.84416 418.89795 507.78398 419.71875 508 C 421.07536 508.35521 421.19142 508.68357 420.9375 511.28125 L 420.65625 514.125 L 418.53125 513.46875 C 417.20717 513.05459 415.58315 513.01336 414.21875 513.375 C 413.01275 513.6944 410.93655 513.98879 409.59375 514.03125 C 406.11453 514.13936 405.61799 515.21756 405.5 522.9375 C 405.4497 526.44123 405.5894 530.95382 405.8125 532.96875 C 406.03106 534.98471 406.22934 537.84259 406.25 539.34375 C 406.2925 542.59502 408.7144 558.50621 409.3125 559.5 C 409.54362 559.88301 410.26939 563.05156 410.9375 566.5625 C 411.60566 570.07344 412.30032 573.12197 412.46875 573.34375 C 412.63722 573.56614 412.69665 574.37241 412.59375 575.125 C 412.49079 575.87764 413.14018 579.67885 414.0625 583.5625 C 414.98482 587.44615 416.00333 592.01064 416.3125 593.71875 C 416.76142 596.20061 418.03638 600.97786 418.96875 603.625 C 418.94975 603.6762 418.92585 603.6949 418.90625 603.75 C 418.57217 604.70135 417.54588 606.5602 416.625 607.875 L 414.96875 610.28125 L 416.65625 613.03125 C 417.59009 614.54991 418.88724 617.24144 419.5625 619 C 420.7757 622.13585 422.29232 625.61106 424.25 629.84375 C 425.32784 632.1655 425.38195 631.96428 421.46875 637.09375 L 420.15625 638.84375 L 421.9375 641.71875 C 422.91886 643.31154 424.62853 645.34751 425.78125 646.21875 C 427.81624 647.758 427.8804 647.87953 427.34375 650.84375 C 427.04021 652.51891 426.60222 655.02865 426.375 656.40625 C 426.03012 658.50306 425.74431 658.9275 424.59375 659 C 423.83804 659.0474 420.17459 659.3403 416.46875 659.65625 C 405.78662 660.56691 400.81256 660.84327 397.25 660.75 C 395.42458 660.702 391.0653 660.6952 387.5625 660.75 C 380.68557 660.85708 356.33204 657.96523 353.375 656.6875 C 352.5671 656.33938 351.75395 656.19053 351.3125 656.28125 C 351.08541 656.0267 350.86805 655.75951 350.78125 655.53125 C 350.33197 654.35133 349.27303 643.23697 349.5 642.125 C 349.5662 641.80097 349.9348 641.53566 350.34375 641.5625 C 350.75415 641.5896 352.11356 641.55445 353.375 641.46875 C 354.87089 641.36698 356.1073 640.34743 356.5625 639.40625 C 356.89923 639.25838 357.19781 638.97544 357.25 638.59375 C 357.2919 638.2861 356.98488 637.99525 356.5625 637.9375 C 355.72082 637.82321 351.91183 632.79968 351.21875 630.90625 C 350.76947 629.67279 351.21675 628.78491 354.5625 624.03125 C 362.03617 613.43028 363.43238 611.24242 363.59375 610.0625 C 363.71831 609.15336 362.74324 607.5425 360.625 605.125 C 357.61684 601.69231 357.04055 600.17483 358.34375 599.09375 C 359.16383 598.41071 362.41033 591.12501 363.15625 588.28125 C 363.49897 586.99631 364.26465 584.6694 364.84375 583.125 C 368.9147 572.26993 370.48005 565.13749 373.78125 543.09375 C 377.42517 518.77686 377.61246 515.13041 375.1875 514.15625 C 374.43992 513.85645 371.04601 513.31845 367.65625 512.96875 L 361.5 512.34375 L 361.625 509.96875 C 361.7654 507.45172 363.20459 505.98034 364.71875 506.8125 C 365.14499 507.04477 366.47934 507.06818 367.6875 506.84375 C 369.57363 506.49575 369.85613 506.21148 369.71875 504.96875 C 369.44155 502.47712 374.21199 497.50284 376.59375 497.78125 C 377.41238 497.87805 377.54914 497.47424 377.4375 495.1875 C 377.3641 493.70282 377.02563 491.45906 376.6875 490.1875 C 375.9675 487.48108 376.33452 486.8148 378.375 487.09375 C 381.5677 487.5303 386.42578 483.42255 387.8125 479.125 C 388.78522 476.10209 388.43808 474.83636 386.25 473.40625 C 383.50039 471.60822 379.90978 471.31535 376.5625 472.625 C 374.98138 473.24114 373.56876 473.70972 373.40625 473.6875 C 373.13337 473.6502 367.96436 457.90928 366.875 453.8125 C 366.61211 452.82305 366.56913 451.60507 366.8125 451.09375 C 367.5109 449.62554 374.3404 446.90219 378.25 446.53125 C 379.89315 446.37538 382.27321 446.15245 383.125 445.9375 C 384.48408 446.2498 387.87407 445.44791 388.09375 444.46875 C 388.64815 442.00801 389.17402 442.55672 390.0625 442.4375 z M 381.53125 454.5625 C 380.05854 454.606 378.39442 454.96142 376.9375 455.625 C 373.99774 456.96245 372.60463 458.20325 373 459.09375 C 373.43848 460.08143 374.42546 460.03353 374.5625 459.03125 C 374.74099 457.72469 379.92844 455.82171 382.375 456.15625 C 384.38668 456.43218 386.19792 457.90595 386.03125 459.125 C 385.99025 459.4286 386.38456 459.71419 386.875 459.78125 C 387.36349 459.84805 387.75863 459.71545 387.78125 459.46875 C 387.84105 458.76759 386.22861 456.37442 385.03125 455.40625 C 384.28947 454.80744 383.00396 454.51902 381.53125 454.5625 z M 379.40625 461.40625 C 378.25446 461.40625 378.09893 461.75834 377.84375 463.625 C 377.61407 465.30531 377.83255 466.21169 378.65625 466.9375 C 379.65561 467.81681 379.98325 467.81135 381.53125 466.90625 C 383.54293 465.7253 384.03318 463.84121 382.6875 462.46875 C 382.17774 461.94776 380.95731 461.49097 379.96875 461.4375 C 379.76025 461.4262 379.57079 461.40625 379.40625 461.40625 z M 380.21875 462.8125 C 380.90516 462.61143 382.01606 464.37832 381.6875 465.3125 C 381.28214 466.47018 379.5803 466.1967 379.34375 464.9375 C 379.26155 464.4995 379.41835 464.22584 379.6875 464.3125 C 380.85157 464.68788 381.29906 464.43242 380.5625 463.8125 C 380.12313 463.44263 379.91811 463.00839 380.09375 462.875 C 380.13535 462.8432 380.17295 462.8259 380.21875 462.8125 z M 379.75 474.15625 C 382.39329 474.18045 385.16151 474.89037 385.5625 475.96875 C 386.52874 478.57364 385.6327 480.56828 382.5 482.75 C 376.82906 486.70469 374.62515 486.19016 374.75 480.90625 C 374.7843 479.37112 374.60335 477.93279 374.34375 477.71875 C 373.38399 476.92699 374.1617 475.57608 376.0625 474.75 C 376.7533 474.44987 377.65195 474.25555 378.625 474.1875 C 378.98989 474.162 379.37239 474.15275 379.75 474.15625 z M 388.75 534.78125 C 387.49679 535.10102 385.25742 543.55593 383.625 554.59375 C 383.13178 557.92874 381.07802 561.3906 380.4375 563.15625 C 379.84824 562.64449 374.80922 566.43444 373.90625 568.09375 C 373.29425 569.21293 373.46807 571.05315 373.78125 574.34375 C 374.15133 578.27888 374.44237 578.99556 376.28125 580.75 C 380.58865 584.86669 385.0542 584.63114 390.375 580 C 393.22675 577.51763 393.33232 577.35221 393.6875 573.71875 C 393.88881 571.66161 393.7674 568.99448 393.4375 567.8125 C 392.3921 564.06579 392.25567 560.43292 393.09375 558.53125 C 393.52575 557.5521 394.09659 555.26952 394.34375 553.46875 C 394.77719 550.35359 397.93945 540.3181 399.15625 538.21875 L 399.125 538.21875 C 399.43536 537.6824 399.49063 537.43786 399.21875 537.40625 C 399.12825 537.39575 399.00222 537.4003 398.84375 537.4375 C 397.28999 537.80229 394.52909 545.57792 392.28125 555.90625 C 389.89085 566.90546 389.87251 566.75564 391.46875 567.625 C 392.98759 568.45177 393.05711 568.99086 392.09375 574.34375 C 391.64807 576.86009 391.1059 577.963 389.6875 579.25 C 387.24879 581.46839 385.55319 581.94467 381.84375 581.4375 C 378.13431 580.92991 376.56201 579.67698 375.65625 576.46875 C 373.98225 570.53352 374.89384 567.42507 379 565.03125 C 379.60979 564.6758 380.00826 564.24435 380.25 563.875 C 380.2749 564.50533 382.20019 563.68286 382.34375 563.65625 C 382.96295 563.54145 385.6915 553.23794 387.4375 542.21875 C 387.87598 539.4481 388.5413 536.91436 388.90625 536.5625 C 389.27121 536.21141 389.40325 535.57191 389.21875 535.15625 C 389.08474 534.85402 388.92903 534.73557 388.75 534.78125 z M 416.3125 609.75 C 416.63943 609.7947 416.8572 610.11054 416.8125 610.4375 C 416.7678 610.76445 416.48319 610.98221 416.15625 610.9375 C 415.82931 610.8928 415.5803 610.60819 415.625 610.28125 C 415.6697 609.95428 415.98556 609.70531 416.3125 609.75 z "
           transform="matrix(0.00138889,0,0,-9.7125097e-4,0.12462536,0.91603164)"
           id="path3027-8" />
        <path
           style="fill:#000000"
           d="M 81.65625 476.25 C 79.260806 476.25 77.62152 477.3301 77.25 479.1875 C 76.98288 480.52392 76.564361 481.0625 75.6875 481.0625 C 74.741418 481.0625 74.46875 480.66395 74.46875 479.28125 C 74.46875 475.96182 70.225732 475.32964 69.03125 478.46875 C 68.633169 479.51276 68.65327 480.24416 69.125 480.8125 C 69.67058 481.47081 69.541652 481.55628 68.5625 481.65625 C 67.89351 481.72455 66.621642 482.14283 65.875 482.40625 C 65.584898 481.83399 64.997642 481.06575 64.125 480.1875 L 64.125 480.15625 C 62.597158 478.61906 61.031172 477.94065 59.78125 478.03125 C 58.174208 478.14726 57.05674 479.56366 57.0625 482.0625 L 58.4375 483.5625 C 58.642412 483.80115 58.878938 484.05974 59.09375 484.3125 C 59.4898 484.77852 59.86551 485.22412 60.09375 485.5625 C 60.31623 485.88682 60.86149 487.19653 61.28125 488.5 C 62.064612 490.93089 65.214338 496.71255 66.0625 497.25 C 66.32314 497.41474 66.81929 499.02959 67.15625 500.84375 C 67.493217 502.65791 68.06166 504.95835 68.4375 505.9375 C 68.81406 506.91974 69.40584 510.41373 69.75 513.71875 C 70.094297 517.0248 70.52406 521.04148 70.6875 522.625 C 70.7672 523.39746 70.897265 523.98756 71.03125 524.4375 C 70.757549 525.20795 70.40245 526.60761 70.09375 526.8125 C 68.707748 527.73398 68.262192 528.46385 67.46875 531.15625 C 66.98059 532.80773 66.678814 532.98061 63.65625 533.28125 C 61.848328 533.46092 61.09535 533.66559 61.34375 533.90625 C 61.231041 534.14905 61.45559 536.25582 61.375 537.375 C 61.078353 541.4934 61.206368 541.58666 67.03125 541.78125 L 72.25 541.9375 L 72.4375 549.03125 C 72.538048 552.93446 72.24707 559.90592 71.8125 564.5 C 71.377922 569.09716 71.135875 573.45582 71.28125 574.21875 C 71.42597 574.97758 70.851388 578.42584 70 581.875 C 69.149678 585.31901 68.46947 588.70921 68.46875 589.40625 C 68.46803 592.91307 62.991832 611.58027 61.34375 613.71875 C 60.73751 614.50331 59.516362 616.75324 58.625 618.71875 C 57.734358 620.68426 56.343412 623.15311 55.53125 624.21875 C 54.996859 624.91798 54.59719 625.63121 54.34375 626.25 L 52.46875 628.4375 C 52.44066 628.4702 54.128348 626.86943 52.40625 628.5625 C 52.02807 631.64615 54.40556 632.47246 54.875 633.5 C 55.720282 635.34916 54.331801 636.57853 47.59375 643.8125 C 45.484866 646.08071 45.461628 646.08947 46.71875 646.96875 C 48.713874 648.36386 52.40382 653.71738 52.6875 656 C 56.406306 661.16138 56.305798 660.86981 57.375 663.09375 C 57.93228 664.2747 58.782 665.25 59.25 665.25 C 59.71872 665.25 61.380858 665.87845 62.9375 666.65625 C 64.952784 667.66402 67.311516 668.20348 71.15625 668.5 C 74.125534 668.73063 78.568126 669.30841 81.03125 669.8125 C 86.444938 670.92035 99.792996 671.13347 106.875 670.21875 C 113.92526 669.31166 119.66472 668.18129 120.34375 667.5625 C 120.65767 667.27708 121.41349 667.03125 122.03125 667.03125 C 122.64901 667.03125 124.35018 666.35657 125.8125 665.5 C 127.84794 664.30463 128.46875 663.57279 128.46875 662.40625 C 128.46875 660.68579 129.63527 656.26282 130.34375 655.3125 C 130.60168 654.96654 130.95984 653.46924 131.15625 652 C 131.23605 651.40439 131.30986 650.95924 131.34375 650.625 C 131.73745 650.14691 132.70323 646.97318 132.84375 646.125 C 132.97534 646.01566 133.10085 645.9131 133.28125 645.75 C 134.40949 644.72761 134.40229 644.56085 133.46875 643.53125 C 133.01574 643.03128 132.4634 642.63123 132.09375 642.5 C 131.55458 641.81121 129.53943 639.78596 128.40625 638.875 C 125.01145 636.14656 124.71413 634.9293 126.78125 632.71875 L 128.4375 630.9375 L 127 629.03125 C 126.21232 627.98724 124.83246 625.39569 123.9375 623.25 C 123.04182 621.10431 121.80958 618.62825 121.1875 617.75 C 120.56558 616.87793 120.06682 615.78751 120.0625 615.34375 C 120.0467 613.91878 118.26204 609.35421 117.375 608.46875 C 116.74379 607.28076 116.11284 605.77131 115.5 604.15625 C 113.37332 594.98763 107.74421 574.96526 106.53125 573.4375 C 105.40085 572.09284 102.71871 563.06767 102.09375 558.53125 C 101.79203 556.34232 101.4698 552.09848 101.375 549.125 L 101.1875 543.75 L 103.28125 543.03125 C 104.42749 542.63856 106.37263 542.29984 107.59375 542.28125 C 108.81487 542.26255 111.18948 541.95525 112.875 541.59375 C 115.89684 540.94613 115.92754 540.89603 115.5625 539.03125 C 115.35874 537.99444 114.88323 536.52014 114.5 535.75 C 114.32019 535.38708 114.13865 535.17496 114 535.03125 C 113.9716 534.99595 113.94495 534.94465 113.90625 534.90625 C 113.85445 534.86725 113.82225 534.84905 113.78125 534.84375 C 113.3107 534.43576 112.4428 533.9245 112 533.90625 C 111.87884 533.90125 110.79777 533.94325 110.15625 533.96875 C 110.09765 533.83403 109.98706 533.70406 109.84375 533.53125 C 109.47511 533.09161 108.99264 531.96958 108.75 531.0625 C 108.39144 529.7302 107.60955 529.16901 104.71875 528.125 C 103.52499 527.6944 102.43947 527.38956 101.71875 527.21875 C 101.57675 526.05118 100.875 523.29174 100.875 523.03125 C 100.875 522.79039 100.8372 521.00973 100.6875 520.0625 C 101.34706 517.85813 102.4456 511.64548 103 506.53125 C 103.21456 504.55133 103.78589 501.73365 104.28125 500.25 C 105.52037 496.52903 109.11828 488.9991 109.875 488.53125 C 110.21719 488.32147 110.32714 487.93281 110.15625 487.65625 C 109.98489 487.38238 110.44297 485.61461 111.15625 483.75 C 112.35217 480.62516 112.36729 480.30612 111.46875 479.40625 C 110.93307 478.86586 109.3523 478.22754 107.9375 478 C 106.76822 477.81138 105.96929 477.69333 105.40625 477.6875 C 105.28452 477.6865 104.24159 478.07691 103.34375 478.4375 C 102.99071 478.3476 102.5573 478.5297 102.3125 478.875 C 102.3035 478.879 102.22235 478.90355 102.21875 478.90625 C 102.10288 478.98145 102.1115 479.05356 102.1875 479.09375 C 102.1175 479.26936 102.0897 479.46374 102.125 479.6875 C 102.32444 480.95185 101.9705 481.625 101.09375 481.625 C 100.34351 481.625 100.17647 481.24098 100.4375 479.9375 C 100.72478 478.5043 100.55038 478.13326 99.1875 477.59375 C 97.847578 477.06302 97.00731 476.84746 96.46875 476.9375 C 96.145412 476.9915 95.917429 477.1675 95.75 477.4375 C 95.66649 477.57274 95.69185 477.68185 95.78125 477.78125 C 95.531532 478.55347 95.156832 479.88674 95.03125 480 C 93.282368 481.58455 92.46875 481.26332 92.46875 479.03125 C 92.46875 477.92958 92.335359 476.92848 92.1875 476.78125 C 92.05466 476.64798 91.686856 476.59095 91.1875 476.59375 C 89.783498 476.60075 86.80961 478.98253 86.65625 479.625 C 86.65325 479.6393 86.656812 479.64385 86.65625 479.65625 C 86.493458 479.81679 86.327464 480.00897 86.125 480.28125 C 85.011158 481.77829 83.21067 480.5587 82.96875 478.125 C 82.83195 476.74945 82.47567 476.25 81.65625 476.25 z M 81.0625 477.34375 C 81.62091 477.21405 81.99381 477.60216 82.03125 478.34375 C 82.17885 481.23384 82.334628 481.49883 84.0625 481.84375 C 86.390984 482.30397 87.65625 481.79425 87.65625 480.375 C 87.65625 480.11691 87.62795 479.91649 87.59375 479.75 C 88.163853 479.19879 89.08557 477.81656 89.53125 477.71875 C 91.333412 477.32234 91.56925 477.75765 91.28125 480.59375 C 91.17181 481.67071 91.305898 481.70542 94.125 481.8125 C 95.440442 481.8557 95.80027 481.58018 95.96875 480.40625 C 96.02265 480.02858 96.26743 478.60371 96.34375 478.03125 C 96.41455 478.03925 96.483019 478.03125 96.5625 478.03125 C 98.077382 478.03125 99.21875 479.46473 99.21875 481.34375 C 99.21875 482.62972 99.472288 482.84375 101.125 482.84375 C 103.49668 482.84375 104.26481 480.99681 103.90625 479.125 C 103.90425 479.1143 103.90825 479.10415 103.90625 479.09375 C 104.10122 479.06555 104.28307 479.0375 104.34375 479 C 104.86215 478.67568 110.25782 479.59435 110.9375 480.125 C 111.18806 480.32062 109.40826 484.81833 107.0625 489.9375 C 105.9537 492.36324 105.0625 494.57436 105.0625 494.875 C 105.0625 495.76046 104.53048 495.53278 102.15625 493.625 C 99.661446 491.62346 95.627302 489.4375 94.4375 489.4375 C 92.921898 489.4375 93.710386 490.38619 95.84375 491.15625 C 97.036792 491.58764 98.577088 492.4571 99.28125 493.0625 C 99.986132 493.66689 101.3513 494.83566 102.3125 495.65625 L 104.0625 497.125 L 102.71875 501.375 C 101.41483 505.51296 101.34017 505.625 99.40625 505.625 C 98.314728 505.625 96.488122 505.26567 95.375 504.8125 C 94.261878 504.35871 92.387022 503.8086 91.1875 503.59375 C 89.072856 503.21177 89.00372 503.25808 88.625 505.28125 C 87.670998 510.36541 92.303466 515.90813 98.6875 517.3125 C 100.1239 517.62962 100.33207 517.94178 100.09375 519.1875 C 99.99435 519.70494 100.01485 520.19269 100.09375 520.53125 C 99.869348 521.50835 99.65625 522.8243 99.65625 523.03125 C 99.65625 523.28381 100.66133 525.90184 101.28125 527.125 C 101.18285 527.1094 101.0627 527.0634 101 527.0625 C 100.9329 527.06156 100.89556 527.07655 100.875 527.09375 C 100.389 527.49735 102.81142 529.03125 103.9375 529.03125 C 105.96502 529.03125 106.86197 529.79589 108.03125 532.4375 C 108.72461 534.00352 109.49916 534.95041 109.875 534.71875 C 110.22267 534.73425 111.15962 534.58253 112.0625 534.71875 C 112.66633 534.80985 113.21359 535.06696 113.59375 535.21875 C 113.54385 535.66086 113.65615 536.45732 114.0625 537.4375 C 115.03306 539.77778 114.47156 540.4375 111.46875 540.4375 C 107.82267 540.4375 102.2975 542.01393 100.84375 543.46875 C 99.693908 544.61572 99.6243 545.17544 99.9375 550.8125 C 100.31839 557.66449 100.98931 561.72116 102.71875 567.4375 C 103.92406 572.83095 112.9202 600.08052 115.46875 606.96875 C 115.74595 608.1334 115.90794 608.80698 116.21875 610.125 C 116.69971 612.22024 116.77764 611.79909 117.25 612.34375 C 117.72232 612.89047 118.29941 614.12181 118.53125 615.09375 C 118.76309 616.05849 119.43149 617.56404 120.03125 618.40625 C 120.63101 619.24845 121.76834 621.48877 122.5625 623.375 C 123.35738 625.26123 124.61511 627.47646 125.34375 628.3125 C 126.07239 629.15471 126.65625 630.08568 126.65625 630.375 C 126.65625 630.66226 125.5712 631.86713 124.25 633.0625 C 122.9288 634.25787 122.17975 635.24897 122.59375 635.25 C 123.00703 635.257 123.85243 635.98426 124.46875 636.90625 C 125.32881 638.18786 130.24181 642.13772 131.75 642.71875 C 131.75089 642.72157 131.78031 642.71589 131.78125 642.71875 C 131.85272 642.93594 132.04121 643.25637 132.375 643.625 C 132.99087 644.30803 133.14324 644.84375 132.75 644.84375 C 132.40104 644.84375 132.13962 645.23539 132.09375 645.71875 C 131.6 646.94358 130.6514 650.39675 130.5 651.15625 C 130.03587 652.12054 129.42427 654.01128 129.03125 655.65625 C 128.59853 657.47761 128.02 659.21722 127.75 659.53125 C 127.48022 659.84837 127.25 660.81785 127.25 661.71875 C 127.25 662.92132 126.74345 663.67226 125.25 664.59375 C 124.13832 665.27754 122.6997 665.84375 122.0625 665.84375 C 121.42458 665.84375 120.65695 666.08325 120.34375 666.375 C 120.03077 666.66947 116.67034 667.36289 112.875 667.90625 C 109.07988 668.44576 104.24425 669.17089 102.15625 669.53125 C 98.130004 670.23005 86.640746 669.80608 82.8125 668.8125 C 81.627378 668.50981 77.31318 667.88846 73.21875 667.4375 C 68.355142 666.89696 64.655186 666.13649 62.59375 665.25 C 59.234944 663.80547 59.228504 663.7571 51.6875 650.96875 C 50.272698 648.56463 48.66068 646.35454 48.125 646.03125 C 47.240838 645.49969 47.268919 645.40031 48.25 644.8125 C 48.844 644.45317 50.865756 642.21286 52.75 639.84375 C 55.053284 636.94234 56.516028 635.58284 57.21875 635.71875 C 58.524112 635.97099 58.573121 635.04365 57.3125 634 C 56.790507 633.56757 55.877362 631.80656 54.5 630.5 C 54.104086 629.92412 54.182283 628.93179 54.34375 628 C 54.39045 628.0135 54.44195 628.03315 54.5 628.03125 C 55.184002 628.01275 59.209608 621.47585 60.40625 618.4375 C 60.98801 616.96208 61.63855 615.60327 61.84375 615.4375 C 62.981352 614.52167 68.47883 598.40515 68.46875 596 C 68.46575 595.30193 68.83141 592.98944 69.3125 590.84375 C 72.046344 578.6538 72.67211 574.89871 72.96875 568.65625 C 73.148829 564.86114 73.506438 559.84291 73.75 557.53125 C 73.993583 555.2198 73.975099 551.99214 73.71875 550.34375 C 73.461818 548.69536 73.42088 546.0114 73.625 544.40625 C 74.08364 540.77382 73.670144 540.44986 68.375 540.4375 C 63.440112 540.4231 62.46875 540.0763 62.46875 538.3125 C 62.46875 537.68004 62.50441 535.39734 62.375 534.28125 C 62.969173 534.40648 63.796438 534.52871 64.875 534.65625 C 67.993324 535.02382 69.24768 534.4873 69 532.875 C 68.71776 531.03922 69.609461 528.4375 70.53125 528.4375 C 71.457172 528.4375 72.21874 525.83478 72.0625 524.625 C 72.311519 523.55936 72.100001 521.37092 71.46875 519.15625 C 71.186935 518.16269 70.792772 514.95428 70.59375 512.03125 C 70.12863 505.19471 68.041044 497.59122 65.75 494.53125 C 65.008398 493.53873 63.148522 490.24026 61.625 487.1875 C 60.654438 485.24362 59.371202 483.88345 58.5 483.09375 L 57.96875 482.03125 C 58.45997 481.08815 58.731232 480.08534 58.5625 479.8125 C 58.393869 479.54144 58.5084 479.14479 58.84375 478.9375 C 59.179126 478.73027 59.46875 478.8376 59.46875 479.15625 C 59.46875 479.47488 59.971173 479.60044 60.59375 479.4375 C 61.379992 479.2357 62.245178 479.78291 63.4375 481.28125 C 64.382862 482.4622 65.37732 483.4375 65.625 483.4375 C 65.820638 483.4375 65.959653 483.3824 66.03125 483.28125 C 66.875812 483.24245 68.33183 483.03744 68.84375 482.84375 C 70.227592 482.31761 71.128392 480.03345 70.09375 479.6875 C 69.021668 479.33435 70.152479 477.4375 71.4375 477.4375 C 72.907742 477.4375 73.92523 479.19542 73.46875 480.9375 C 73.16131 482.11124 73.357707 482.25 75.59375 482.25 C 78.140394 482.25 78.13754 482.255 78.3125 479 C 78.3463 478.37082 78.755058 477.79906 79.25 477.71875 C 79.74536 477.63805 80.56786 477.46097 81.0625 477.34375 z M 94.75 493.125 C 93.986798 493.1904 93.41255 493.66114 92.84375 494.53125 C 91.224468 497.00126 91.569866 497.84375 94.21875 497.84375 C 95.511872 497.84375 96.978 497.66906 97.5 497.46875 C 98.928482 496.92203 98.695207 494.53698 97.125 493.78125 C 96.322198 493.39525 95.65535 493.15896 95.09375 493.125 C 94.976692 493.118 94.859037 493.116 94.75 493.125 z M 95.5 493.9375 C 95.891954 493.9663 96.94328 494.26831 97.25 494.75 C 97.59776 495.29692 97.19405 496.033 97.34375 496.09375 C 97.986906 496.357 95.926192 496.56029 94.71875 496.59375 C 93.810828 496.61695 93.0625 496.36122 93.0625 496.03125 C 93.1406 495.89563 93.186849 495.33957 93.59375 494.875 C 94.064925 494.33704 94.92832 493.89545 95.5 493.9375 z M 90.625 505.125 C 90.779583 505.1027 90.960635 505.116 91.15625 505.125 C 91.938892 505.1614 93.054098 505.44556 94.5625 506 C 95.882262 506.48664 97.912658 506.81455 99.0625 506.71875 C 101.38522 506.52417 101.88849 507.42771 101.15625 510.34375 C 100.76241 511.91286 100.74597 511.92419 99.84375 510.75 C 99.209284 509.92178 98.84993 509.76328 98.65625 510.28125 C 98.16665 511.58781 96.49311 511.18326 96.84375 509.84375 C 97.016348 509.18117 96.89285 508.625 96.59375 508.625 C 96.29464 508.625 96.0625 509.02445 96.0625 509.5 C 96.0625 512.07709 92.61461 511.13953 92.28125 508.46875 L 92.0625 506.53125 L 91.96875 508.53125 C 91.90825 509.78736 91.605559 510.43054 91.15625 510.28125 C 90.321768 510.00739 89.34248 506.88292 89.75 505.78125 C 89.88365 505.42069 90.16125 505.19177 90.625 505.125 z M 92.75 511.71875 C 92.8038 511.69835 92.8444 511.70875 92.90625 511.71875 C 94.488812 511.9637 95.46875 512.41566 95.46875 512.90625 C 95.46875 513.21836 96.146753 513.30003 96.96875 513.09375 C 98.686672 512.66235 99.713202 514.24213 98.5 515.4375 C 97.944153 515.98751 97.600912 515.88804 96.96875 515.03125 C 96.51875 514.41809 95.89183 514.06567 95.59375 514.25 C 94.950788 514.6464 92.46875 513.03213 92.46875 512.21875 C 92.46875 511.98526 92.588641 511.78 92.75 511.71875 z M 100.25 513.4375 C 100.58 513.4375 100.875 513.95324 100.875 514.59375 C 100.875 515.23508 100.58 515.95136 100.25 516.15625 C 99.909699 516.36527 99.65625 515.83958 99.65625 514.96875 C 99.65625 514.12556 99.920002 513.4375 100.25 513.4375 z M 82.59375 565.78125 C 82.477744 565.81055 82.360041 565.92118 82.1875 566.09375 C 81.736845 566.54677 81.726554 567.34563 82.15625 568.75 C 82.494204 569.85888 82.92412 571.73493 83.125 572.9375 C 83.3266 574.14728 83.994278 575.79478 84.625 576.59375 C 85.255722 577.39273 85.95998 578.84776 86.1875 579.8125 C 86.41502 580.77825 87.175588 582.84574 87.84375 584.4375 C 88.984232 587.14432 88.995034 587.45032 88.09375 589.34375 C 86.049666 593.62689 88.456338 597.84805 93.78125 599.28125 C 99.81198 600.90493 103.7443 598.06915 104.6875 591.4375 C 105.16414 588.08203 103.65562 585.3202 100.5625 583.84375 C 98.875538 583.03757 98.208752 582.17799 97.21875 579.5 C 94.582106 572.36178 92.21008 566.84375 91.75 566.84375 C 90.981038 566.84375 91.152959 567.66727 92.75 571.28125 C 93.575842 573.14689 94.25 575.20231 94.25 575.84375 C 94.25 576.49137 94.768558 578.18217 95.40625 579.59375 C 96.043452 581.00533 96.69039 582.57895 96.84375 583.09375 C 96.99639 583.61164 98.198238 584.35978 99.5 584.75 C 101.19704 585.26068 102.18539 586.01393 102.96875 587.46875 C 104.02787 589.43426 104.01707 589.61092 102.90625 593.03125 C 101.93497 596.01915 101.41333 596.70351 99.53125 597.625 C 93.8598 600.39771 87.205356 594.90256 89.5 589.34375 C 89.908701 588.3502 90.229354 587.41577 90.1875 587.25 C 90.145 587.08422 89.272402 584.65147 88.25 581.84375 C 86.728638 577.66769 84.843352 571.96166 83.09375 566.28125 C 83.00015 565.97798 82.864644 565.81427 82.71875 565.78125 C 82.68225 565.77325 82.63245 565.77125 82.59375 565.78125 z M 111.375 590.46875 C 111.4417 590.62247 111.94431 592.60185 112.75 595.8125 C 111.83598 592.64763 111.27929 590.24833 111.375 590.46875 z M 55.875 660.5625 C -37.437726 925.63729 9.2186374 793.09989 55.875 660.5625 z "
           transform="matrix(0.00138889,0,0,-9.7125097e-4,0.12462536,0.91603164)"
           id="path3027-3" />
        <path
           style="fill:#1a1a1a;fill-opacity:1;stroke:#000000;stroke-width:1.01015258;stroke-miterlimit:4;stroke-dasharray:none"
           d="m 375.768,484.68313 c -0.58247,-0.58247 -0.90846,-2.05238 -0.91003,-4.10334 -8.2e-4,-1.06899 -0.16174,-2.22274 -0.38432,-2.75546 -0.49283,-1.17949 -0.30225,-1.72523 0.85828,-2.45784 1.89922,-1.19892 4.84337,-1.38306 8.03123,-0.50228 1.68739,0.46621 2.35401,1.27623 2.34839,2.85356 -0.006,1.56899 -0.79729,2.89384 -2.59446,4.34168 -3.04669,2.45446 -6.34189,3.63087 -7.34909,2.62368 z"
           id="path3092"
           inkscape:connector-curvature="0"
           transform="matrix(0.00138889,0,0,-9.7125097e-4,0.12462536,0.91603164)" />
        <path
           style="fill:#1a1a1a;fill-opacity:1;stroke:#000000;stroke-width:1.01015258;stroke-miterlimit:4;stroke-dasharray:none"
           d="m 379.79546,465.38839 c -0.5595,-0.61823 -0.34154,-0.99442 0.48465,-0.83649 0.73188,0.13991 0.8864,-0.42613 0.25856,-0.94719 -0.20834,-0.17291 -0.37881,-0.43392 -0.37881,-0.58002 0,-0.47248 1.21484,0.86004 1.37847,1.51201 0.30384,1.2106 -0.89007,1.79403 -1.74287,0.85169 z"
           id="path3094"
           inkscape:connector-curvature="0"
           transform="matrix(0.00138889,0,0,-9.7125097e-4,0.12462536,0.91603164)" />
      </g>
    </g>
  </g>
</svg>
